{"title":"The Beatles Anthology Ep. 3 - (documentary) - 1995 - [=Faith=]","uid":11726011,"size":643724306,"categoryP":"video","categoryS":"tv_shows","magnet":"?xt=urn:btih:7b7a773c483544344892dd753d6269de19bb803b&amp;dn=The+Beatles+Anthology+Ep.+3+-+%28documentary%29+-+1995+-+%5B%3DFaith%3D%5D&amp;tr=udp%3A%2F%2Ftracker.openbittorrent.com%3A80&amp;tr=udp%3A%2F%2Fopen.demonii.com%3A1337&amp;tr=udp%3A%2F%2Ftracker.coppersurfer.tk%3A6969&amp;tr=udp%3A%2F%2Fexodus.desync.com%3A6969","seeders":2,"leechers":0,"uploader":"Faithwyn","files":3,"time":1425055668,"description":"The Beatles - Anthology\n\nEpisode 3 of 8\n\n\nThe Beatles Anthology is the name of a documentary TV series, a three-volume set of double albums, and a book focusing on the history of the Beatles. Paul McCartney, George Harrison and Ringo Starr all participated in the making and approval of the works, which are sometimes referred to collectively as the Anthology project.\n\nThe Beatles Anthology documentary series was first broadcast in November 1995, with expanded versions released on VHS and Laserdisc in 1996 and on DVD in 2003. The documentary used interviews with the Beatles and their associates to narrate the history of the band as seen through archival footage and performances. The initial volume of the album set was released in conjunction with the documentary in November 1995, with the subsequent two volumes released in 1996. The albums included unreleased performances and outtakes presented in roughly chronological order, along with two new songs based on demo tapes recorded by John Lennon after the group broke up. The book, released in 2000, paralleled the documentary in presenting the group's history through quotes from interviews.\n\n\nGeneral:\n\nComplete name : The Beatles Anthology III.mp4\nFormat : MPEG-4\nFile size : 614 MB\nDuration : 1h 12min\nOverall bit rate mode : Variable\nOverall bit rate : 1,177 Kbps\nMovie name : The Beatles Anthology III\nPart/Position : 3\nPart/Total : 8\nPerformer : The Beatles\nGenre : Documentary\nRecorded date : 1995\nIMDB Rating : 9.4\n\n\n\nVideo:\n\nID : 1\nFormat : AVC\nFormat/Info : Advanced Video Codec\nFormat profile : &lt;a class=&quot;__cf_email__&quot; href=&quot;/cdn-cgi/l/email-protection&quot; data-cfemail=&quot;9ed6f7f9f6ded2acb0af&quot;&gt;[email&amp;#160;protected]&lt;/a&gt;&lt;script cf-hash='f9e31' type=&quot;text/javascript&quot;&gt;\n/* &lt;![CDATA[ */!function(){try{var t=&quot;currentScript&quot;in document?document.currentScript:function(){for(var t=document.getElementsByTagName(&quot;script&quot;),e=t.length;e--;)if(t[e].getAttribute(&quot;cf-hash&quot;))return t[e]}();if(t&amp;&amp;t.previousSibling){var e,r,n,i,c=t.previousSibling,a=c.getAttribute(&quot;data-cfemail&quot;);if(a){for(e=&quot;&quot;,r=parseInt(a.substr(0,2),16),n=2;a.length-n;n+=2)i=parseInt(a.substr(n,2),16)^r,e+=String.fromCharCode(i);e=document.createTextNode(e),c.parentNode.replaceChild(e,c)}}}catch(u){}}();/* ]]&gt; */&lt;/script&gt;\nFormat settings, CABAC : No\nFormat settings, ReFrames : 1 frame\nCodec ID : avc1\nCodec ID/Info : Advanced Video Coding\nDuration : 1h 12mn\nBit rate : 983 Kbps\nMaximum bit rate : 3,702 Kbps\nWidth : 512 pixels\nHeight : 384 pixels\nDisplay aspect ratio : 4:3\nFrame rate mode : Constant\nFrame rate : 29.970 fps\nColor space : YUV\nChroma subsampling : 4:2:0\nBit depth : 8 bits\nScan type : Progressive\nBits/(Pixel*Frame) : 0.167\nStream size : 514 MiB (84%)\nWriting library : x264 core 116 r2019 9cc407d\nEncoding settings : See info file.\nEncoded date : UTC 2015-02-26 21:31:35\nTagged date : UTC 2015-02-26 21:32:31\n\n\nAudio:\n\nID : 2\nFormat : AAC\nFormat/Info : Advanced Audio Codec\nFormat profile : LC\nCodec ID : 40\nDuration : 1h 12min\nBit rate mode : Variable\nBit rate : 192 Kbps\nMaximum bit rate : 275 Kbps\nChannels : 2 channels\nChannel positions : Front: L R\nSampling rate : 48.0 KHz\nCompression mode : Lossy\nStream size : 98.6 MiB (16%)\nEncoded date : UTC 2015-02-26 21:32:24\nTagged date : UTC 2015-02-26 21:32:31","torrent":{"xt":"urn:btih:7b7a773c483544344892dd753d6269de19bb803b","amp;dn":"The+Beatles+Anthology+Ep.+3+-+%28documentary%29+-+1995+-+%5B%3DFaith%3D%5D","amp;tr":["udp%3A%2F%2Ftracker.openbittorrent.com%3A80","udp%3A%2F%2Fopen.demonii.com%3A1337","udp%3A%2F%2Ftracker.coppersurfer.tk%3A6969","udp%3A%2F%2Fexodus.desync.com%3A6969"],"infoHash":"7b7a773c483544344892dd753d6269de19bb803b","infoHashBuffer":{"type":"Buffer","data":[123,122,119,60,72,53,68,52,72,146,221,117,61,98,105,222,25,187,128,59]},"announce":[],"urlList":[]}}